<mxfile host="app.diagrams.net" modified="2023-12-30T18:42:46.971Z" agent="Mozilla/5.0 (X11; Linux x86_64) AppleWebKit/537.36 (KHTML, like Gecko) Chrome/118.0.0.0 Safari/537.36" version="22.1.16" etag="bBqk55z_LTroHONGuE9J" type="github">
  <diagram name="PÃ¡gina-1" id="jfkeYqFU7I15dhPbtF7e">
    <mxGraphModel>
      <root>
        <mxCell id="0" />
        <mxCell id="1" parent="0" />
      </root>
    </mxGraphModel>
  </diagram>
</mxfile>
